<svg xmlns="http://www.w3.org/2000/svg" viewBox="0 0 2928.62 2924.17"><style>.B{fill:#000072}.C{opacity:.25}.D{opacity:.4}.E{fill:#fff}.F{fill:#08cffc}.G{fill:#535580}.H{fill:#00116b}.I{color-interpolation-filters:sRGB}</style><defs><linearGradient id="A" x1="256.44" x2="256.44" y1="813.48" y2="1463.45" href="#T"><stop offset="0" stop-color="#fff"/><stop offset="1" stop-color="#b5b8dc"/></linearGradient><linearGradient id="T" gradientUnits="userSpaceOnUse"/><linearGradient id="C" x1="2672.18" x2="2672.18" href="#A"/><linearGradient id="D" x1="590.25" x2="1128.7" y1="2005.29" y2="2005.29" href="#A"/><linearGradient id="E" x1="2490.5" x2="2490.5" y1="1362.6" y2="1613.25" href="#A"/><linearGradient id="F" x1="1459.72" x2="1459.72" y1="317.45" y2="2061.2" href="#A"/><linearGradient id="G" x1="1715.97" x2="2335.07" y1="2036.37" y2="2036.37" href="#A"/><linearGradient id="H" x1="1459.55" x2="1459.55" y1="2227.22" y2="2521.42" href="#A"/><linearGradient id="B" x1="428.1" x2="428.1" y1="1395.33" y2="1613.21" href="#A"/><radialGradient id="K" cx="1210.54" cy="930.82" r="462.49" fx="1210.54" fy="930.82" gradientTransform="matrix(.11314 1.10422 -.99234 .12583 1974.38 -540.39)" href="#T"><stop offset="0" stop-color="#fff"/><stop offset=".15" stop-color="#c2c2c2"/><stop offset=".43" stop-color="#5a5a5a"/><stop offset=".62" stop-color="#191919"/><stop offset=".71"/></radialGradient><radialGradient id="M" cx="1210.54" cy="930.82" r="462.49" fx="1210.54" fy="930.82" gradientTransform="matrix(.11314 1.10422 -.99234 .12583 1974.38 -540.39)" href="#T"><stop offset="0" stop-color="#08cffc"/></radialGradient><radialGradient id="R" cx="1753.01" cy="971.28" fx="1753.01" fy="971.28" gradientTransform="matrix(.11314 1.10422 -.99234 .12583 2556.17 -1097.54)" href="#M"/><radialGradient id="P" cx="1753.01" cy="971.28" r="462.49" fx="1753.01" fy="971.28" gradientTransform="matrix(.11314 1.10422 -.99234 .12583 2556.17 -1097.54)" href="#T"><stop offset="0" stop-color="#fff"/><stop offset=".15" stop-color="#c2c2c2"/><stop offset=".43" stop-color="#5a5a5a"/><stop offset=".62" stop-color="#191919"/><stop offset=".71"/></radialGradient><mask id="L" width="811.04" height="869.59" x="785.61" y="488.94" maskUnits="userSpaceOnUse"><g filter="url(#I)"><g mask="url(#J)"><ellipse cx="1191.13" cy="923.73" fill="url(#K)" rx="435.13" ry="405.08" style="mix-blend-mode:multiply" transform="rotate(-83.5 1191.07 923.735)"/></g></g></mask><mask id="Q" width="811.04" height="869.59" x="1388.64" y="536.3" maskUnits="userSpaceOnUse"><g filter="url(#N)"><g mask="url(#O)"><ellipse cx="1794.16" cy="971.09" fill="url(#P)" rx="435.13" ry="405.08" style="mix-blend-mode:multiply" transform="rotate(-83.5 1794.09 971.105)"/></g></g></mask><mask id="J" width="811.04" height="32766" x="785.61" y="-9796.48" maskUnits="userSpaceOnUse"/><mask id="O" width="811.04" height="32766" x="1388.64" y="-9796.48" maskUnits="userSpaceOnUse"/><filter id="I" width="811.04" height="869.59" x="785.61" y="488.94" class="I" filterUnits="userSpaceOnUse"><feFlood flood-color="#fff"/><feBlend in="SourceGraphic"/></filter><filter id="N" width="811.04" height="869.59" x="1388.64" y="536.3" class="I" filterUnits="userSpaceOnUse"><feFlood flood-color="#fff"/><feBlend in="SourceGraphic"/></filter><path id="S" d="m1225.96 1830.51 132.6-1.21c-48.24-.24-93.36.2-132.6 1.21z"/></defs><path fill="#f7d50d" d="m1616.19 2597.24-94.91.81c-84 0-158.68-2.03-223.32-6.06 32.97 62.22 89.06 145.34 161.03 165.51 4.44 1.25 8.73 1.88 12.74 1.88 39.79 0 93.81-62.19 144.45-162.14z"/><path fill="#f7970d" d="M1521.28 2528.32c-135.18 0-244.35-5.23-326.51-15.6 9.76 26.54 21.62 55.66 35.7 85.22 41.98 88.11 113.17 199.06 213.93 227.29 9.22 2.58 18.41 3.89 27.34 3.89 103.28 0 194.22-173.93 244.95-304.09-53.15 1.7-122.18 3.28-195.41 3.28zM1459 2757.51c-71.97-20.17-128.07-103.29-161.03-165.51 64.63 4.03 139.31 6.06 223.32 6.06l94.91-.81c-50.65 99.95-104.66 162.14-144.45 162.14-4.01 0-8.3-.63-12.74-1.88z"/><path fill="#f92c0b" d="M1521.28 2451.61c-159.12 0-340.34-7.42-427.55-37.19 0 0 91.63 417.22 334.61 485.31 14.83 4.16 29.31 6.11 43.4 6.11 216.74 0 344.41-461.58 344.41-461.58s-136.48 7.36-294.86 7.36zm-76.88 373.62c-100.76-28.23-171.95-139.18-213.93-227.29-14.09-29.56-25.94-58.68-35.7-85.22 82.17 10.37 191.34 15.6 326.51 15.6 73.23 0 142.26-1.58 195.41-3.28-50.73 130.16-141.67 304.09-244.95 304.09-8.93 0-18.12-1.31-27.34-3.89z"/><path d="M1471.71 2924.17c-16.01 0-32.27-2.29-48.33-6.8-250.71-70.24-343.74-481.53-347.58-499-1.42-6.47.75-13.2 5.69-17.62a18.35 18.35 0 0 1 18.14-3.69c69.5 23.69 215.29 36.21 421.62 36.21 156.05 0 292.51-7.3 293.88-7.37 5.93-.37 11.59 2.22 15.29 6.82s4.96 10.7 3.39 16.4c-5.37 19.39-133.99 475.06-362.09 475.06zm-352.3-483.36c26.36 95.6 121.59 387.36 313.89 441.23 12.85 3.61 25.77 5.44 38.42 5.44 172.79 0 289.64-330.03 319.31-423.68-47.29 2.12-153.1 6.17-269.77 6.17-186.34 0-321.19-9.8-401.85-29.16z" class="B"/><path fill="url(#A)" d="m461.4 1284.97 27.58-48.27c-1.65-9.98-11.19-62.79-44.85-175.58-33.41-111.96-88.82-223.68-100.99-247.64-113.39 56.64-277.28 35.71-309.52 30.85-4.42 30.94-24.67 194.09 11.03 363.46 35.93 170.41 115.94 244 129.78 255.66l73.25-22.77c105.27-42.98 206.44-148.06 213.71-155.71Z"/><path d="M342.41 801.89c4.57-4.26 40.62-39.26 39.72-81.43-.58-26.81-23.01-39.99-39.85-46.12-31.41 6.36-108.06 29.13-108.06 63 0 11.14 3.22 19.42 9.57 24.62 12.71 10.41 34.29 6.24 34.51 6.2 2.9-.59 5.68 1.29 6.26 4.16a5.32 5.32 0 0 1-4.15 6.27c-.47.09-5.51 1.09-12.42 1.09-9.1 0-21.44-1.71-30.9-9.44-7.2-5.88-11.49-14.21-12.93-24.75-10.84 4.41-23.28 6.13-35.95 6.13-38.7 0-79.33-15.59-81.71-16.52-2.74-1.06-4.09-4.15-3.02-6.89s4.14-4.09 6.89-3.03c.75.29 74.26 28.46 113.45 8.81 3.66-35.66 64.85-56.79 97.65-65.59-1.19-.91-2.03-2.26-2.13-3.85-.02-.33-2.28-33.17-24.02-53.02-11.34-10.34-77.09-17.59-140.98-.71-41.93 11.08-95.74 36.06-113.94 92.11-12.5 38.48-11.75 70.57 2.23 95.38 16.95 30.09 48.22 39.92 53.71 41.44 66.7 3.91 170.23 1.75 246.07-37.89z" class="G"/><path d="m506.31 1363.83 4.59-29.03-44.89-39.29c-18.96 19.44-110.5 110.13-207.47 152.15 20.72 22.35 55 58.32 87.64 90.21 19.73-12.69 118.47-79.64 159.86-173.66.06-.15.19-.24.27-.38z" class="F"/><path d="M2586.21 801.89c75.84 39.64 179.37 41.8 246.06 37.89 5.5-1.54 36.92-11.51 53.78-41.56 13.92-24.8 14.65-56.85 2.17-95.27-18.2-56.05-72-81.03-113.94-92.11-63.88-16.88-129.65-9.64-140.99.7-21.74 19.85-23.99 52.69-24.02 53.02-.1 1.58-.94 2.93-2.13 3.85 32.81 8.8 93.99 29.92 97.65 65.59 39.22 19.67 112.7-8.52 113.45-8.81a5.34 5.34 0 0 1 6.89 3.02 5.331 5.331 0 0 1-3.02 6.89c-2.37.92-43.01 16.52-81.71 16.52-12.67 0-25.11-1.72-35.95-6.13-1.43 10.55-5.73 18.88-12.93 24.75-9.46 7.73-21.8 9.44-30.9 9.44-6.91 0-11.95-.99-12.42-1.09a5.33 5.33 0 0 1-4.15-6.27c.58-2.87 3.34-4.76 6.26-4.16.22.04 21.8 4.21 34.5-6.19 6.35-5.21 9.57-13.49 9.57-24.63 0-33.95-77.05-56.76-108.3-63.05-16.83 6.05-39.03 19.14-39.61 46.17-.91 42.16 35.14 77.16 39.72 81.43z" class="G"/><path fill="url(#B)" d="M354.04 1545.5c31.29 30.15 59.9 55.13 72.02 58.8 25.86 7.84 58.63 8.85 71.5 8.91-3.7-40.57-7.23-117.99 4.61-217.88-46.07 80.5-125.79 135.74-148.12 150.16Z"/><path d="M464.27 2135.55c1.22 4.29 3.34 6.98 6.69 8.48 51.82 23.21 209.95-32.39 239.87-43.29-43.05-95.49-76.14-193.24-98.67-268.07-50.97 76.28-161.31 255.54-147.89 302.87Z" class="G"/><path fill="url(#C)" d="M2585.49 813.48c-12.17 23.96-67.58 135.68-100.99 247.64-33.65 112.78-43.2 165.6-44.85 175.58l27.58 48.27c7.27 7.65 108.45 112.74 213.71 155.71l73.25 22.77c13.84-11.65 93.85-85.24 129.78-255.66 35.7-169.37 15.45-332.52 11.03-363.46-32.22 4.86-196.12 25.79-309.51-30.85Z"/><path d="M1761.21 553.06c-112.04-52.51-201.61-69.42-279.77-69.42-71.75 0-133.88 14.24-195.04 28.25-158.39 36.29-296.33 126.67-388.4 254.49-76.58 106.3-115.89 227.83-116.86 361.2-.75 102.94 33 189.51 100.29 257.28 151.7 152.81 444.23 184.88 662.91 184.88 142.31 0 608.03-24.19 626.16-335.44 15.82-271.61-160.13-564.49-409.29-681.26Z" class="B"/><path fill="url(#D)" d="m1007.2 2043.02-94.09-50.04a5.308 5.308 0 0 1-2.11-2.04l-77.5-134.59c-16.13-8.69-145.37-78.69-243.26-143.44 14.61 59.77 79.86 310.34 189.48 500.38 19.57 6.66 170.99 57.04 348.97 84.4-32.15-32.98-118.35-132.6-121.5-254.67Z"/><path d="m2462.52 1295.41-55.08 45.71c41.86 94.47 153.71 180.57 175.22 196.52 32.58-31.84 66.74-67.69 87.42-89.99-97.12-42.09-188.8-133-207.56-152.24Z" class="F"/><path fill="url(#E)" d="M2406.09 1362.6c13.76 82.84 20.29 166.5 19.44 250.65 13.54-.04 50.58-.93 77.04-8.95 12.16-3.68 40.93-28.83 72.34-59.12-23.87-17.67-121.75-93.6-168.82-182.58Z"/><path fill="url(#F)" d="M1539.63 317.45c-154.6 0-332.42 69.58-500.71 195.93-163.27 122.58-303.87 286.97-395.89 462.89-176.61 337.64-135.47 639.15-131.54 664.78 79.02 72.43 325.89 205.29 328.39 206.63.88.47 1.6 1.17 2.09 2.03l77.49 134.58 89.17 47.43c7.79-36.79 39.46-178.66 68.76-198.2 33.74-22.49 547.99-17.87 618.26 5.56 70.95 23.65 121.81 193.18 130.03 222.11h43.58c10.73-11.61 72.76-110.77 110.51-172.48a5.234 5.234 0 0 1 3.29-2.39c214.67-51.75 407.33-183.52 429.2-198.81 24.33-395.64-124.5-805.78-398.41-1097.6-157.74-168.06-339.45-272.46-474.23-272.46zm641.49 917.49c-18.67 320.54-492.12 345.46-636.78 345.46-220.7 0-516.17-32.62-670.45-188.03-69.36-69.86-104.14-158.97-103.38-264.86.98-135.63 40.97-259.22 118.86-367.34 93.58-129.92 233.74-221.77 394.66-258.64 123.51-28.29 263.48-60.37 481.7 41.91 121.62 57 230.66 157.33 307.05 282.51 77.8 127.49 116.28 272.74 108.34 409z"/><path fill="url(#G)" d="M1871.06 2071.84h-45.22c-27.99 120.24-89.92 221.42-109.87 251.91 51.33-5.08 269.87-29.79 424.13-94.92 106.67-184.43 178.64-423.02 194.97-479.83-80.58 47.33-209.26 113.49-347.37 147.14-107.52 175.69-113.01 175.7-116.64 175.7Z"/><path fill="url(#H)" d="M1629.71 2388.7c-13.02 4.18-40.81 5.8-76.05 5.8-118.37 0-321.16-18.34-333.98-20.01-23.58-3.07-68.64-53.2-78.21-64.12-164.69-23.96-309.38-68.71-353.54-83.14 38.51 64.37 82.24 120.84 130.97 159.09 99.11 77.79 296.54 128.04 528.12 134.43 224.24 6.23 426.66-30.7 528.23-96.27 57.1-36.86 109.61-103.14 155.93-180.47-166.41 66.42-396.25 88.77-422.91 91.18-6.06 8.43-30.05 37.96-78.57 53.52Z"/><path d="M1147.72 2301.41c.08.07.11.18.19.25.09.09.21.14.3.24 14.24 16.47 55.09 59.72 72.85 62.04 28.07 3.66 353.13 31.38 405.4 14.62 51.88-16.64 74.13-50.97 74.35-51.31.02-.04.07-.06.1-.1.03-.05.03-.1.06-.14.83-1.16 82.67-117.56 115.18-260.39-4.58-16.32-56.17-194.88-123.86-217.45-36.97-12.32-188.05-18.82-321.38-19.8-151.2-1.12-274.82 4.48-287.61 13.01-23.75 15.83-55.25 147.55-65.56 197.81 2.3 145.91 128.7 260.08 129.98 261.22Z" class="F"/><path d="M2199.22 2141.26c106.07 33.41 214.37 39.9 229.34 13.26 11.86-21.08-75.46-151.8-137.27-234.98-24.06 67.18-55.1 145.58-92.07 221.72Z" class="G"/><path d="M130.05 688.27c-17.5-13.04-26.77-30.2-26.77-30.2C44.94 698.91 38 788.69 38 788.69c1.33 3.33 2.87 6.54 4.62 9.65 16.95 30.09 48.22 39.92 53.71 41.44 61.59 3.61 154.54 1.97 228.15-29.5 1.23-2.32 29.22-55.92-7.05-62.3-31.84-5.6-66.35 5.4-81.17 2.59 1.58 4.67 4.03 8.54 7.51 11.39 12.71 10.41 34.29 6.24 34.51 6.2 2.9-.59 5.68 1.29 6.26 4.16a5.32 5.32 0 0 1-4.15 6.27c-.47.09-5.51 1.09-12.42 1.09-9.1 0-21.44-1.71-30.9-9.44-7.2-5.88-11.49-14.21-12.93-24.75-10.84 4.41-23.28 6.13-35.95 6.13-38.7 0-79.33-15.59-81.71-16.52-2.74-1.06-4.09-4.15-3.02-6.89s4.14-4.09 6.89-3.03c.75.29 74.26 28.46 113.45 8.81 1.2-11.71 8.62-21.84 19.18-30.49l.03-.06s-95.47-2.15-112.97-15.19z" class="C H"/><path d="M277.28 1272.72c-122.52 12.35-168.85-368.59-168.85-368.59H59.01l-6.18 36.03s-40.15 278.89 140.02 513.18l16.33-.7 38.5-11.97c105.27-42.98 206.44-148.06 213.71-155.71l9.22-16.14c-3.72-17.35-15.46-69.31-30.67-109.87 0 0-40.15 101.41-162.67 113.77zM427.5 1487.52c-16.82 15.83-32.99 28.94-46.31 38.94 20.85 20.15 40.19 37.34 51.05 43.29 25.95 14.23 53.84 16.55 63.36 16.92-1.01-17.5-1.69-38.65-1.54-62.87-4.37-1.23-38.84-11.23-52.56-23.03-2.65-2.28-7.64-7.03-14-13.25ZM438.07 1461.76l9.03-9.69-67.39-79.54-17.7 13.49.14-.1c.99-.73 61.86 61.46 75.92 75.85zM373.36 1518.83c13.19-9.9 29.45-23.05 46.38-38.94l-78.36-79.16.89-.63c-7.05 4.86-14.26 9.64-21.61 14.27l-26.91 21.37c.85 1.27 41.28 45.4 79.61 83.09zM504.6 2122.63c12.52 6.16 171.67-36.05 196.98-42.82-12.32-28.35-23.77-56.72-34.32-84.49-.01-.01-176.26 120.62-162.65 127.31zM868.26 2034.26c2.75 3.43 146.42 66.06 146.42 66.06-4.26-18.39-6.97-37.54-7.48-57.3l-94.09-50.04a5.308 5.308 0 0 1-2.11-2.04l-77.5-134.59c-16.13-8.69-145.37-78.69-243.26-143.44 3.65 14.94 10.47 41.81 20.36 76.68l183.52 99.86c37.06 22.65 71.38 141.39 74.13 144.83z" class="C B"/><path d="M2611.18 747.98c-36.24 6.38-8.3 59.92-7.05 62.29 73.6 31.47 166.55 33.11 228.14 29.5 5.5-1.54 36.92-11.51 53.78-41.56 1.72-3.07 3.24-6.25 4.55-9.53 0-.04-6.95-89.79-65.28-130.62 0 0-9.27 17.16-26.77 30.2s-112.97 15.19-112.97 15.19.03.05.03.06c10.56 8.65 17.98 18.78 19.18 30.49 39.22 19.67 112.7-8.52 113.45-8.81a5.34 5.34 0 0 1 6.89 3.02 5.331 5.331 0 0 1-3.02 6.89c-2.37.92-43.01 16.52-81.71 16.52-12.67 0-25.11-1.72-35.95-6.13-1.43 10.55-5.73 18.88-12.93 24.75-9.46 7.73-21.8 9.44-30.9 9.44-6.91 0-11.95-.99-12.42-1.09a5.33 5.33 0 0 1-4.15-6.27c.58-2.87 3.34-4.76 6.26-4.16.22.04 21.8 4.21 34.5-6.19 3.48-2.86 5.93-6.72 7.51-11.4-14.82 2.81-49.33-8.19-81.17-2.59z" class="C H"/><path d="m2875.79 940.17-6.18-36.03h-49.42s-46.33 380.94-168.85 368.59-162.67-113.77-162.67-113.77c-15.21 40.55-26.94 92.52-30.66 109.87l9.23 16.15c7.27 7.65 108.45 112.74 213.71 155.71l38.5 11.97 16.32.7c180.17-234.29 140.02-513.18 140.02-513.18zM2566.47 1385.91l.44.32-17.99-13.71-65.17 76.91 9.33 9.73 73.39-73.26zM2434.1 1523.94l-4.48 62.8s34.85.51 66.77-16.99c11.13-6.1 31.18-24.01 52.63-44.82-12.84-10.5-28.59-24.06-45.28-39.97-7.6 7.47-13.61 13.22-16.61 15.81-14.66 12.62-53.02 23.17-53.02 23.17ZM2634.87 1435.74l-26.92-21.38c-7.39-4.66-14.64-9.47-21.73-14.36l1.03.73-75.78 76.59c16.75 15.96 32.56 29.59 45.29 40.03 37.87-37.36 77.27-80.36 78.11-81.61zM2391.76 2148.01c13.09-3.42-114.58-98.84-142.32-119.41-12.76 31.03-26.66 62.79-41.55 94.36 27.49 5.8 156.24 32.26 183.86 25.04ZM1094.76 2437.17c129.73 36.04 369.55 51.48 369.55 51.48s239.82-15.44 369.55-51.48c129.73-36.03 190.47-113.42 190.47-113.42l54.99-61.06c-158.73 51.99-347.07 70.31-371.05 72.48-6.06 8.43-30.05 37.96-78.57 53.52-13.02 4.18-40.81 5.8-76.05 5.8-23 0-49.19-.7-76.55-1.82l-12.8-.19-8.99-.79c-108.12-5.2-225.96-15.95-235.64-17.21-23.58-3.07-68.64-53.2-78.21-64.12-116.92-17.01-223.72-44.49-291.67-64.17l54.49 77.56s60.75 77.38 190.47 113.42zM1919.97 2101.01c2.75-3.43 72.89-150.74 113.25-166.79l279.44-112.02c10.74-33.33 18.33-58.97 22.42-73.2-80.58 47.33-209.26 113.49-347.37 147.14-107.52 175.69-113.01 175.7-116.64 175.7h-45.22c-4.1 17.63-8.95 34.84-14.28 51.49 0 0 105.65-18.89 108.39-22.32z" class="C B"/><path d="M1167.47 2275.63c30.12 37.93 74.57 61.78 122.7 67.14l126.77 14.12 147.44-4.75c49.87-1.61 95.36-28.87 120.36-72.05 10.75-18.57 21.93-36.1 29.81-52.48 35.06-72.85 52.02-115.6 61.08-182.34 0 0-47.92 109.6-141.31 174.12s-217.37 48.95-217.37 48.95-124.76 6.18-218.15-58.34-140.53-164.73-140.53-164.73c9.06 66.74 41.64 127.18 75.64 182.34 9.75 15.82 20.91 32.07 33.57 48.02zM1959.6 1836.93l399.47-186.35c1.37-29.09-2.88-112.71-2.88-112.71-66.8 54.61-264.94 138.79-264.94 138.79l-8.24-101.58c-227.88 185.32-618.7 179.15-618.7 179.15s-390.83 6.18-618.7-179.15l-8.24 101.58s-198.14-84.18-264.94-138.79c0 0-23.34 46.3-21.96 75.38l325.34 189.7 69.33 144.14 74.5 36.42v-.03c13.7-56.18 36.36-135.68 57.76-149.96 33.74-22.49 547.99-17.87 618.26 5.56 55.11 18.37 98.09 124.72 118.38 184.87l45.7-5.83 99.87-181.2z" class="C B"/><path d="M375.44 698.27c-8.04-12.48-21.85-19.8-33.17-23.92-25.78 5.22-82.01 21.5-101.35 45.9-1.9 3.33-3.65 6.29-4.82 7.93-1.23 2.96-1.9 6.01-1.9 9.17 0 4.17.6 7.81 1.5 11.17 1.55-1.48 31.14-29.36 76.57-41.72 32.21-8.76 53.22-9.14 63.15-8.53ZM89.9 646.4c1.03 0 133.16-23.34 164.39-18.88 26.79 3.83 38.65 38.88 41.49 48.8 9.35-3.29 18.25-5.92 25.68-7.91-1.19-.91-2.03-2.26-2.13-3.85-.02-.33-2.28-33.17-24.02-53.02-11.34-10.34-77.09-17.59-140.98-.71-21.55 5.7-46.21 15.11-67.58 30.47-2.29 2 3.15 5.08 3.15 5.08ZM506.04 1364.21c.06-.15.19-.24.27-.38l4.59-29.03-44.89-39.29c-4.15 4.25-11.77 11.91-22.16 21.73l57.73 56.52c1.55-3.15 3.04-6.33 4.46-9.55zM627.29 1881.18l-15.13-48.5c-42.12 63.03-124.71 196.31-144.57 267.44-2.15 26.43 3.38 43.92 3.38 43.92s58.91-118.7 92.55-173.61c27.19-44.4 54.37-78 63.78-89.25zM897.08 2179.78c-9.78-6.18-69.5-21.5-72.07-24.91s-55.6-88.86-81.34-115.12l61.78 135.39c3.09 3.6 120.46 41.18 120.46 38.61s-19.05-27.8-28.83-33.98zM2676.63 627.52c31.23-4.46 163.36 18.88 164.39 18.88 0 0 2.66-1.53 3.48-3.13-21.96-16.52-47.76-26.49-70.2-32.43-63.88-16.88-129.65-9.64-140.99.7-21.74 19.85-23.99 52.69-24.02 53.02-.1 1.58-.94 2.93-2.13 3.85 7.98 2.14 17.65 5.02 27.76 8.65 2.46-8.86 14.26-45.62 41.7-49.54ZM2618.63 706.8c39.79 10.83 67.42 33.56 74.73 40.04.63-2.92 1.05-6.02 1.05-9.5 0-33.95-77.05-56.76-108.3-63.05-11.4 4.1-25.26 11.45-33.19 24.17 8.55-.8 30.39-1.27 65.71 8.34ZM2421.21 1362.29c.26 4.12 8.11 11.47 8.11 11.47l56.63-55.43c-11.04-10.39-19.13-18.52-23.4-22.9l-1.36 1.1-38.17 31.68-8.4 10.41c-.93 1.29 6.34 19.56 6.59 23.68zM2105.9 2154.87c-2.57 3.41-62.29 18.73-72.07 24.91s-28.83 31.4-28.83 33.98 117.37-35.01 120.46-38.61 61.77-135.39 61.77-135.39c-25.74 26.25-78.76 111.71-81.34 115.12zM1796.04 2005.29c-10.8-45.68-65.43-111.38-80.92-143.03-4.17-7.37-8.4-13.74-12.58-18.72-.48-.41-.96-.84-1.43-1.16-8.32-5.54-63.52-9.85-142.67-11.87l-132.6-1.21-12.35.07-21.3.21-21.3-.21-12.35-.07-132.6 1.21c-79.15 2.03-134.35 6.33-142.67 11.87-.47.31-.95.75-1.43 1.16-4.18 4.98-8.41 11.35-12.58 18.72-15.49 31.66-31.82 92.06-42.62 137.74.01 5 .53 9.11 1.68 11.95 0 0 74.13-138.48 79.28-141.05 2.89-1.44 114.78-1.27 212.47-.84v.84s337.65 1.89 361.06 19.02c31.92 23.35 122.98 155.36 122.98 155.36 1.16-2.84-8.11-34.98-8.09-39.98z" class="D E"/><use class="C H" href="#S"/><use class="D E" href="#S"/><path d="M2422.69 2124.92c-20.7-48.51-83.57-141.01-131.31-205.26-.04 0-.08-.02-.12-.03l-12.54 34.19c24.12 30.03 137.16 171.33 144.19 191.47 5.28 15.1 2.31-5.26-.22-20.36zM92.28 861.27s120.75 39.07 232.03 0c0 0 63.93 116.61 87.01 194.14 23.08 77.54 53.27 101.81 53.27 101.81S397.8 906.25 342.7 818.06c0 0-140.33 33.43-250.42 32.4v10.81zM2833.49 861.27s-120.75 39.07-232.03 0c0 0-63.93 116.61-87.01 194.14-23.08 77.54-53.27 101.81-53.27 101.81s66.79-250.97 121.89-339.16c0 0 140.33 33.43 250.42 32.4v10.81zM759.16 1075.14s-68.66 185.9 89.18 341.55 364.41 211.68 734.06 202.81c369.65-8.88 523.31-99.61 594.46-233.59 71.14-133.98 0-307.51 0-307.51s67.51 256.83-160.99 390.97-662.6 141.86-959.85 30.87-285.8-350.91-296.85-425.1z" class="D E"/><g class="B"><path d="M1871.06 2084.87h-49.42c-8.29 0-15.54-5.56-17.71-13.55-19.74-72.77-68.62-194.07-115.76-209.78-71.45-23.81-557.01-23.58-598.1-7.95-15.09 12.79-42.93 107.9-59.7 189.84a18.344 18.344 0 0 1-10.16 12.92 18.37 18.37 0 0 1-16.44-.4l-96.78-51.48a18.377 18.377 0 0 1-7.29-7.05l-75.64-131.39c-35.79-19.37-255.28-139.36-330.03-208.9a18.35 18.35 0 0 1-5.57-10.26c-2.29-13.03-53.84-323.25 133.6-681.58 93.62-178.97 236.62-346.19 402.65-470.85 172.36-129.4 355.22-200.67 514.92-200.67 143.23 0 326.96 104.65 491.48 279.92 126.79 135.08 231.15 300.6 301.82 478.67 82 206.64 116.59 421.68 102.8 639.17a18.336 18.336 0 0 1-7.6 13.74c-8.3 5.96-203.83 145.23-432.12 202.23l-50.48 81.27c-60.48 96.09-62.08 96.09-74.47 96.09zm-35.57-36.7h27.45c15-20.38 63.11-96.61 105.72-166.25a18.37 18.37 0 0 1 11.35-8.26c200.8-48.41 382.11-167.57 419.63-193.25 22.15-390.16-125.24-793.88-395.28-1081.58-155.36-165.52-333.43-268.34-464.73-268.34-151.8 0-326.84 68.65-492.88 193.32-161.76 121.44-301.03 284.28-392.17 458.51-167.4 320.02-136.96 607.42-130.86 652.22 81.25 71.93 319.88 200.37 322.33 201.68a18.39 18.39 0 0 1 7.23 7.01l75.62 131.33 70.62 37.56c14.05-63.95 41.22-169.79 70.66-189.42 25.69-17.13 218.99-17.58 300.91-16.98 131.31.97 286.62 6.99 328.7 21.02 71.72 23.91 121.23 172.62 135.71 221.45z"/><path d="M1495.13 2545.07c-16.13 0-32.38-.22-48.75-.67-236.47-6.53-439.12-58.66-542.08-139.47-219.51-172.28-335.45-678.58-340.28-700.05-2.23-9.89 3.99-19.71 13.87-21.93 9.89-2.25 19.7 3.98 21.93 13.87 1.16 5.13 117.9 515.02 327.13 679.24 96.99 76.12 291.55 125.33 520.44 131.65 221.78 6.12 421.32-29.98 520.8-94.19 208.48-134.59 356.38-675.04 357.85-680.48 2.64-9.79 12.7-15.57 22.5-12.93a18.34 18.34 0 0 1 12.93 22.5c-6.15 22.78-153.09 559.54-373.38 701.75-97.83 63.15-283.77 100.72-492.96 100.72z"/><path d="M1551.5 2407.61c-124.34 0-331-19.87-333.5-20.2-25.45-3.32-63.85-43.08-83.16-64.85-196.29-29.1-363.38-87.08-365.06-87.68-9.57-3.34-14.6-13.81-11.26-23.38a18.35 18.35 0 0 1 23.38-11.26c1.67.58 169.38 58.75 364.91 86.98a18.31 18.31 0 0 1 11.25 6.16c25.07 28.97 55.33 55.91 64.75 57.65 38.11 4.96 352.01 30.4 399.67 15.13 46.88-15.04 66.54-44.69 67.36-45.94 3.09-4.77 8.3-7.95 13.96-8.41 2.58-.21 260.23-22.11 433.2-95.8 9.35-3.97 20.1.37 24.07 9.69s-.37 20.1-9.69 24.07c-162.85 69.38-389.61 93.51-436.32 97.88-10.65 13.01-36.44 39.04-81.37 53.46-14.66 4.7-44.68 6.51-82.19 6.51z"/><path d="M1144.16 2323.73a18.27 18.27 0 0 1-12.18-4.63c-5.54-4.93-135.8-122.49-137.94-279.1-.14-10.13 7.96-18.46 18.1-18.6 10.18.12 18.46 7.97 18.6 18.1 1.91 140.2 124.4 251.07 125.63 252.18 7.56 6.74 8.23 18.33 1.49 25.9a18.324 18.324 0 0 1-13.71 6.15zm561.13 24.71c-3.68 0-7.39-1.1-10.61-3.39-8.26-5.86-10.21-17.32-4.34-25.58.81-1.15 81.7-116.31 113.4-256.98 2.23-9.88 12.03-16.11 21.93-13.87 9.89 2.23 16.09 12.05 13.87 21.93-33.37 148.09-115.79 265.25-119.29 270.17-3.57 5.03-9.23 7.72-14.97 7.72zM505.23 2172.97c-17.24 0-32.4-2.15-43.96-7.34-6.84-3.07-15.82-9.65-19.78-23.62-5.66-19.97-4.31-61.98 72.45-195.79 40.77-71.07 84.31-135.3 84.75-135.94 5.7-8.39 17.12-10.56 25.49-4.87 8.38 5.69 10.57 17.11 4.87 25.49-.46.67-46.04 67.92-87.18 140.42-72.9 128.47-66.5 157.25-64.97 161.09 39.17 16.58 164.22-19.11 234.22-45.67a18.36 18.36 0 0 1 23.67 10.65c3.59 9.48-1.18 20.07-10.65 23.67-16.5 6.25-139.59 51.9-218.92 51.91zm-28.11-40.1h.05-.05zm1889.2 61.54c-56.78 0-129.43-15.96-180.71-32.64-9.63-3.13-14.91-13.49-11.77-23.12 3.13-9.64 13.5-14.9 23.12-11.77 48.32 15.72 103.3 26.97 147.09 30.09 49 3.5 67.95-3.89 72.31-7.85-.53-26.35-73.1-138.74-141.67-230.02-6.09-8.1-4.45-19.6 3.65-25.69 8.1-6.1 19.61-4.45 25.69 3.65.41.54 41.38 55.15 79.53 113.1 76.31 115.92 73.89 141.28 65.63 155.96-11.57 20.57-43.39 28.29-82.88 28.3zm50-43.88zM498.74 1636.89c-13.23 0-49.7-.89-79.55-9.94-35.98-10.9-149.33-131.99-183.21-168.84-4.07-4.42-5.71-10.56-4.4-16.43s5.42-10.72 10.98-12.98c106.06-43.21 208.72-151.98 209.74-153.07 6.76-7.22 18.05-7.78 25.48-1.26l50.61 44.3a18.34 18.34 0 0 1 1.72 25.89c-6.68 7.62-18.27 8.4-25.89 1.72l-37.54-32.87c-28.75 28.58-103.3 98.04-186.33 138.55 62.46 66.57 132.88 134.73 149.49 139.88 30.64 9.29 72.56 8.34 72.98 8.32 10.14-.34 18.55 7.74 18.82 17.86.26 10.13-7.72 18.55-17.85 18.82l-5.04.05z"/><path d="M345.46 1562.97c-6.23 0-12.3-3.17-15.74-8.89-5.22-8.68-2.43-19.95 6.25-25.18 1.13-.68 114.03-69.7 158.15-169.95a18.34 18.34 0 0 1 24.18-9.4c9.27 4.08 13.49 14.91 9.4 24.19-48.88 111.06-167.76 183.56-172.8 186.6a18.294 18.294 0 0 1-9.44 2.63zm-172.16-75.25a18.33 18.33 0 0 1-10.98-3.65c-4.05-3.03-99.71-76.39-140.82-271.4-40.4-191.65-11.68-369.93-10.44-377.43a18.34 18.34 0 0 1 7.46-11.94c3.97-2.83 8.93-3.96 13.73-3.14 1.88.32 188.38 31.09 304.66-30.07 4.31-2.27 9.35-2.72 14-1.28 4.65 1.45 8.54 4.69 10.8 9.01 2.71 5.19 66.94 128.64 105.1 256.53 38.05 127.5 45.58 178.65 45.88 180.77.58 4.04-.21 8.16-2.23 11.7l-28.83 50.45a18.35 18.35 0 0 1-25.03 6.83c-8.8-5.03-11.86-16.24-6.83-25.04l25.57-44.75c-3.04-16.67-13.75-69.1-43.7-169.47-29.35-98.35-75.92-196.67-94.46-234.16-104.38 46.24-242.45 34.63-292.34 28.34-6.07 49.56-19.18 195.42 12.57 346.08 31.84 151 98.77 223.69 120.19 243.71l66.45-20.65c9.67-3.02 19.96 2.4 22.97 12.08s-2.4 19.96-12.08 22.97l-76.19 23.68c-1.78.55-3.62.83-5.44.83z"/><path d="M96.04 863.56c-1.38 0-2.79-.16-4.2-.49-1.88-.44-46.26-11.28-69.83-53.11-17.36-30.82-18.75-69.28-4.13-114.32 17.02-52.39 62.1-89.63 130.39-107.68 62.32-16.48 141.52-13.5 163 6.11 18.62 17 26.36 40.12 29.54 54.84 27.45 7.57 64.06 28.46 64.98 71.05 1.2 55.74-46.17 98.33-48.19 100.11-7.58 6.71-19.18 6.02-25.9-1.58-6.71-7.59-6.01-19.18 1.58-25.9.33-.3 36.66-33.27 35.83-71.84-.68-31.79-46.42-38.25-46.88-38.31-8.71-1.16-15.38-8.34-15.89-17.11-.01-.19-2.09-27.75-19.55-43.93-10.51-6.86-79.66-15.39-145.27 6.9-47.12 16.01-76.97 42.48-88.73 78.68-11.26 34.67-10.93 63.14 1 84.61 15.43 27.8 46.24 35.71 46.55 35.78 9.79 2.42 15.84 12.32 13.48 22.13-2.03 8.4-9.5 14.06-17.78 14.06zm190.49-242.39.02.02s0-.01-.02-.02z"/><path d="M268.02 792.71c-11.28 0-26.76-2.25-39.18-12.39-8.35-6.82-18.3-19.81-18.3-42.98 0-58.49 107.17-82.33 128.65-86.52 9.96-1.96 19.58 4.55 21.51 14.49 1.94 9.94-4.54 19.58-14.48 21.53-46.82 9.17-98.98 32.17-98.98 50.5 0 10.58 3.58 13.54 4.76 14.51 5.97 4.95 18.6 4.5 23.78 3.52 9.91-1.9 19.54 4.57 21.49 14.46 1.95 9.9-4.39 19.5-14.27 21.52-1.36.28-7.16 1.36-14.99 1.36Z"/><path d="M187.92 764.64c-39.84 0-79.96-15-86.15-17.41-9.44-3.68-14.12-14.32-10.43-23.76 3.68-9.44 14.32-14.11 23.75-10.43 18.47 7.16 77.36 24.08 104.65 8.4 8.79-5.05 20.01-2.02 25.05 6.76 5.05 8.79 2.02 20-6.76 25.05-14.63 8.41-32.34 11.4-50.11 11.4zM2425 1636.93c-3.01 0-4.87-.04-5.25-.05-10.13-.23-18.14-8.63-17.92-18.76.23-10.13 8.62-18.15 18.75-17.93.48 0 47.5.94 78.2-8.36 16.61-5.15 87.04-73.31 149.49-139.88-83.33-40.65-158.12-110.49-186.65-138.87l-52.74 43.77c-7.8 6.47-19.37 5.4-25.84-2.4s-5.4-19.37 2.4-25.84l65.76-54.57c7.48-6.2 18.48-5.51 25.11 1.58 1.03 1.09 103.68 109.86 209.74 153.07a18.34 18.34 0 0 1 10.98 12.98 18.36 18.36 0 0 1-4.4 16.43c-33.88 36.85-147.24 157.94-183.21 168.84-30.03 9.1-70.16 9.98-84.44 9.98z"/><path d="M2583.16 1562.97a18.32 18.32 0 0 1-10.6-3.38c-5.63-3.99-138.45-99.07-187.04-209.46-4.09-9.27.13-20.1 9.4-24.19 9.26-4.08 20.1.13 24.18 9.4 44.47 101.03 173.39 193.4 174.69 194.32a18.35 18.35 0 0 1 4.34 25.58c-3.58 5.04-9.23 7.73-14.98 7.73zm172.17-75.25c-1.83 0-3.66-.27-5.44-.83l-76.19-23.68c-9.68-3.01-15.09-13.29-12.08-22.97s13.3-15.09 22.97-12.08l66.45 20.65c21.36-19.96 88.33-92.65 120.18-243.72 31.76-150.66 18.65-296.52 12.58-346.08-49.9 6.29-187.96 17.91-292.34-28.34-18.55 37.49-65.12 135.81-94.46 234.16-29.95 100.35-40.65 152.77-43.7 169.47l25.57 44.75c5.02 8.8 1.97 20.01-6.83 25.04-8.79 5.02-20 1.98-25.03-6.83l-28.83-50.45a18.357 18.357 0 0 1-2.23-11.7c.3-2.11 7.84-53.26 45.88-180.77 38.16-127.89 102.39-251.34 105.1-256.53 2.26-4.32 6.14-7.56 10.8-9.01 4.65-1.45 9.7-.99 14 1.28 116.29 61.16 302.79 30.39 304.66 30.07 4.79-.82 9.75.31 13.73 3.14a18.38 18.38 0 0 1 7.46 11.94c1.25 7.5 29.96 185.79-10.44 377.43-41.1 195-136.76 268.37-140.82 271.4a18.33 18.33 0 0 1-10.98 3.65z"/><path d="M2832.58 863.56c-8.33 0-15.86-5.7-17.85-14.16-2.31-9.84 3.76-19.68 13.57-22.04.83-.21 31.23-8.22 46.54-35.78 11.92-21.47 12.26-49.93 1-84.61-11.76-36.19-41.61-62.66-88.73-78.68-65.61-22.29-134.75-13.76-145.26-6.9-17.46 16.18-19.54 43.73-19.56 44.01-.6 8.7-7.24 15.87-15.89 17.02-1.82.26-46.2 6.87-46.88 38.31-.83 38.57 35.49 71.54 35.86 71.87 7.54 6.75 8.21 18.34 1.49 25.89a18.34 18.34 0 0 1-25.85 1.56c-2.02-1.78-49.39-44.37-48.19-100.11.92-42.59 37.53-63.48 64.98-71.05 3.18-14.72 10.92-37.84 29.54-54.84 21.47-19.6 100.67-22.57 162.98-6.11 68.3 18.05 113.4 55.28 130.42 107.68 14.62 45.04 13.24 83.5-4.13 114.32-23.57 41.83-67.95 52.67-69.82 53.11-1.41.33-2.82.49-4.21.49z"/><path d="M2660.6 792.71c-7.82 0-13.62-1.08-14.99-1.36-9.93-2.03-16.34-11.72-14.31-21.65a18.36 18.36 0 0 1 21.65-14.31c5.07.96 17.7 1.4 23.67-3.54 1.18-.97 4.76-3.94 4.76-14.51 0-18.33-52.16-41.33-98.98-50.5a18.35 18.35 0 0 1-14.48-21.53c1.94-9.94 11.54-16.45 21.51-14.49 21.48 4.19 128.65 28.03 128.65 86.52 0 23.18-9.95 36.17-18.3 42.98-12.42 10.14-27.9 12.39-39.18 12.39z"/><path d="M2740.7 764.64c-17.77 0-35.48-2.98-50.11-11.4-8.78-5.05-11.81-16.27-6.76-25.05s16.28-11.81 25.05-6.76c27.29 15.69 86.18-1.24 104.67-8.4 9.43-3.65 20.07 1.02 23.74 10.46s-1 20.06-10.43 23.74c-6.19 2.41-46.31 17.41-86.15 17.41zm-1196.36 828.78c-223.18 0-522.27-33.29-679.7-191.87-71.9-72.42-107.95-164.65-107.16-274.13 1-138.38 41.82-264.5 121.32-374.87 95.43-132.49 238.32-226.15 402.32-263.73 125.56-28.76 267.85-61.37 490.14 42.81 123.9 58.07 234.94 160.18 312.65 287.52 79.17 129.73 118.32 277.66 110.23 416.55-7.75 132.94-90.17 231.28-244.97 292.27-144.54 56.95-315.68 65.45-404.83 65.45zM1289.32 524.59C1134.02 560.18 998.8 648.75 908.58 774c-74.97 104.07-113.45 223.06-114.39 353.68-.72 99.34 31.75 182.79 96.5 248.01 148.54 149.62 437.46 181.03 653.66 181.03 139.42 0 595.69-23.3 613.15-323.16 15.53-266.58-157.21-554.06-401.81-668.7-210.84-98.82-340.74-69.06-466.37-40.27z"/></g><g class="F"><ellipse cx="1191.13" cy="923.73" rx="151.89" ry="81.34" transform="rotate(-83.5 1191.07 923.735)"/><ellipse cx="1787.94" cy="971.09" rx="151.89" ry="81.34" transform="rotate(-83.5 1787.867 971.108)"/><path d="M1410.59 1056.89c31.08 10.52 81.77 20.18 137.08.38 16.6-5.94 34.15 6.43 34.62 24.06.93 34.76-3.85 86.24-34.03 123.82-46.81 58.3-139.38 37.63-160.51-34.09-8.08-27.44-11.98-59.02-11.59-89.85.22-17.62 17.74-29.97 34.43-24.32Z"/></g><g mask="url(#L)"><ellipse cx="1191.13" cy="923.73" fill="url(#M)" rx="435.13" ry="405.08" transform="rotate(-83.5 1191.07 923.735)"/></g><g mask="url(#Q)"><ellipse cx="1794.16" cy="971.09" fill="url(#R)" rx="435.13" ry="405.08" transform="rotate(-83.5 1794.09 971.105)"/></g><path d="M2162.27 244.45c10.19-24.8 10.36-49.3.25-72.95-18.3-42.79-64.6-70.78-91.25-79.16-34.29-10.79-67.82 8.25-81.8 17.89 61.42 33.14 120.27 76.92 172.81 134.22Z" class="F"/><path d="M781.01 711.55c13.48-12.16 63.63-54.36 147.93-91.04 65.75-28.61 162.06-57.38 283.34-57.38 44.58 0 92.51 3.89 143.57 13.1 230.69 41.63 506.76 178.5 715.61 308.86-215.82-283-494.21-426.66-692.26-497.62-220.75-79.09-392.1-87.52-393.8-87.6h-.09c-2.41-.15-239.67-13.31-288.47 114.64-46.34 121.5 12.47 232.4 84.18 297.05zm1225.06-337.31c13.45 136.34-89.32 282.15-108.03 307.42 69.46 62.33 136.81 134.9 198.61 219.32 97.58 62.28 178.62 122.1 230.58 168.18 16.67-48.78 101.95-335.86-68.29-666.48-28.6-55.54-61.8-103.2-98.22-144.08-.69-.49-1.22-1.1-1.6-1.81-54.57-60.77-116.33-106.35-180.8-140.31-1.13-.18-2.2-.69-3.04-1.58-71.3-37.11-145.8-60.11-217.51-73.68 71.1 37.65 226.06 140.77 248.3 333.02z" class="G"/><path d="M1890.6 680.98c19.11-26.3 118.25-169.81 105.49-299.21-27.06-233.84-256.45-332.66-275.73-340.54-115.91-17.06-221.35-11.02-289.51-2.9-59.9 7.14-116.03 23.1-166.85 47.44-142.24 68.13-241.8 180.18-267.16 210.56 40.34 3.11 194.83 18.88 386.18 87.38 144.88 51.87 332.44 142.43 507.57 297.27Z" class="F"/><path d="M796.19 421.95c-94.26 102.83-7.48 229.22 18.74 262.67 25.45-18.28 63.57-42.17 114.02-64.12 65.75-28.61 162.06-57.38 283.34-57.38 44.58 0 92.51 3.89 143.57 13.1 170.26 30.72 365.22 113.34 539.66 206.92 33.58 17.6 52.13 28.59 52.13 28.59C1581.5 419.04 905.85 302.32 796.2 421.95z" class="C B"/><path d="M1772.22 114.45c0 91.98-170.22 249.84-369.27 199.05s-185.32-161.99-185.32-161.99c-105.02 53.54-176.59 143.03-176.59 143.03 68.28 8.49 193.85 29.94 341.38 82.76 135.76 48.61 308.98 131.18 474.36 268.78 35.48-49.61 90.85-140.75 90.85-246.11-18.15-207.29-175.41-285.53-175.41-285.53zM2308.97 674.59s-34.32 24.66-138.96-22.01-163.05-190.13-163.05-190.13c-1.69-1.49-4.77 2.49-8.48 9.39-23.34 101.55-86.21 190.6-100.44 209.83 69.46 62.33 136.81 134.9 198.61 219.32 79.29 50.6 147.65 99.58 198.37 140.88 58.8-173.54 13.95-367.28 13.95-367.28z" class="C B"/><path d="M2149.82 196.22c-6.18-19.82-50.19-51.22-76.19-62.03-19.85-8.25-38.01-3.91-45.5-1.39 42.5 26.69 83.32 59 121.15 97.94 2.19-6.19 5.02-20.13.54-34.51Z" class="C H"/><path d="M828.45 346.45c148.22-49.63 686.15 58.78 965.72 263.66-146.64-110.44-295.44-179.82-414.97-222.65-220.75-79.09-392.1-87.52-393.8-87.6h-.09c-2.41-.15-239.67-13.31-288.47 114.64-25.86 67.81-18.96 132.3 4.65 187.31-2.97-52.05-1.27-212.42 126.97-255.36zM2200.52 360.18c81.58 123.71 128.67 247.62 148.84 308.02-14.61-82.09-42.31-172.06-90.42-265.51-28.6-55.54-61.8-103.2-98.22-144.08-.69-.49-1.22-1.1-1.6-1.81-54.57-60.77-116.33-106.35-180.8-140.31-1.13-.18-2.2-.69-3.04-1.58-71.3-37.11-145.8-60.11-217.51-73.68 24.07 12.75 57.76 33.03 92.65 61.7 31.97 12.16 244.91 97.72 350.1 257.25Z" class="D E"/><g class="B"><path d="M2329.57 1096.75c-4.5 0-8.91-1.66-12.32-4.75-129.14-116.96-590.4-424.78-965.6-492.49-183.29-33.07-325.05 4.59-411.69 42.01-94.14 40.66-145.58 89.88-146.08 90.37-6.86 6.64-17.68 6.94-24.87.64-79.31-69.4-145.73-191.61-94.29-326.47 49.53-129.83 254.62-131.6 302.41-130.24 25.28-30.73 126.6-146.21 276.06-217.8 53.16-25.46 111.8-42.15 174.27-49.6 118.26-14.09 295.77-17.45 469.82 46.55 171.28 62.99 300.04 176.33 382.71 336.87 99.76 193.73 112.7 371.5 105.99 486.51-7.29 125.07-38.06 203.55-39.37 206.83a18.32 18.32 0 0 1-12.9 11.08 18.23 18.23 0 0 1-4.15.48zm-1117.3-546.66c45.31 0 94.03 3.95 145.89 13.31 343.1 61.91 785.74 332.88 962.68 482.98 9.44-31.89 24.11-92.34 28.59-171.73 6.22-110.08-6.44-280.28-102.07-466-201.85-392-637.61-385-815.56-363.78-58.48 6.97-113.24 22.53-162.77 46.25-161.76 77.48-267.83 213.27-268.88 214.64-3.71 4.81-9.64 7.49-15.65 7.1-2.3-.16-230.12-12.67-275.5 106.28-42.19 110.6 7.8 212.3 72.36 274.9 21.65-18.01 69.75-53.88 142.38-85.49 66.98-29.14 165.08-58.47 288.53-58.47z"/><path d="M2093.65 924.17c-5.66 0-11.25-2.61-14.83-7.53-215.96-295.91-501.57-444.26-703.14-516.61-219.06-78.62-389.17-87.08-390.86-87.16-10.12-.46-17.96-9.03-17.5-19.15.45-10.12 9.1-17.96 19.14-17.51 7.09.31 176.35 8.62 400.38 88.83 206.8 74.04 499.86 226.08 721.64 529.96 5.98 8.19 4.18 19.67-4 25.64a18.27 18.27 0 0 1-10.8 3.53z"/><path d="M1891.04 700.45c-3.91 0-7.85-1.24-11.18-3.81a18.35 18.35 0 0 1-3.34-25.73c1.2-1.56 119.53-157.15 106.01-294.26-27.13-234.51-266.32-329.26-268.74-330.19-9.45-3.64-14.17-14.25-10.54-23.71 3.63-9.45 14.23-14.17 23.68-10.56 2.69 1.03 66.51 25.82 134.56 82.34 90.71 75.34 145.19 171.54 157.52 278.2 14.99 152-108.18 313.75-113.43 320.56-3.61 4.69-9.05 7.14-14.54 7.14zm272.68-427.75a18.37 18.37 0 0 1-8.1-1.89 18.35 18.35 0 0 1-8.34-24.57c11.73-23.8 12.83-47.22 3.26-69.61-16.57-38.75-58.82-64.2-83.18-71.86-37.5-11.79-75.94 20.18-76.32 20.51-7.72 6.53-19.29 5.6-25.84-2.1s-5.66-19.23 2.01-25.81c2.18-1.87 54.07-45.54 111.16-27.61 36.94 11.61 85.84 45.49 105.92 92.44 13.78 32.22 12.36 66.9-4.09 100.27-3.19 6.48-9.7 10.24-16.47 10.24z"/></g></svg>