<svg xmlns="http://www.w3.org/2000/svg" width="64" height="64" viewBox="0 0 64 64" fill="none">
    <g clip-path="url(#clip0_998_9073)">
        <path d="M8 4C8 5.38071 5.38071 8 4 8M8 4C8 5.38071 10.6193 8 12 8M8 4V0M4 8C5.38071 8 8 10.6193 8 12M4 8H0M8 12C8 10.6193 10.6193 8 12 8M8 12V16M12 8H16" stroke="#c8e6c9"></path>
        <path d="M8 20C8 21.3807 5.38071 24 4 24M8 20C8 21.3807 10.6193 24 12 24M8 20V16M4 24C5.38071 24 8 26.6193 8 28M4 24H0M8 28C8 26.6193 10.6193 24 12 24M8 28V32M12 24H16" stroke="#c8e6c9"></path>
        <path d="M8 36C8 37.3807 5.38071 40 4 40M8 36C8 37.3807 10.6193 40 12 40M8 36V32M4 40C5.38071 40 8 42.6193 8 44M4 40H0M8 44C8 42.6193 10.6193 40 12 40M8 44V48M12 40H16" stroke="#c8e6c9"></path>
        <path d="M8 52C8 53.3807 5.38071 56 4 56M8 52C8 53.3807 10.6193 56 12 56M8 52V48M4 56C5.38071 56 8 58.6193 8 60M4 56H0M8 60C8 58.6193 10.6193 56 12 56M8 60V64M12 56H16" stroke="#c8e6c9"></path>
        <path d="M24 4C24 5.38071 21.3807 8 20 8M24 4C24 5.38071 26.6193 8 28 8M24 4V0M20 8C21.3807 8 24 10.6193 24 12M20 8H16M24 12C24 10.6193 26.6193 8 28 8M24 12V16M28 8H32" stroke="#c8e6c9"></path>
        <path d="M24 20C24 21.3807 21.3807 24 20 24M24 20C24 21.3807 26.6193 24 28 24M24 20V16M20 24C21.3807 24 24 26.6193 24 28M20 24H16M24 28C24 26.6193 26.6193 24 28 24M24 28V32M28 24H32" stroke="#c8e6c9"></path>
        <path d="M24 36C24 37.3807 21.3807 40 20 40M24 36C24 37.3807 26.6193 40 28 40M24 36V32M20 40C21.3807 40 24 42.6193 24 44M20 40H16M24 44C24 42.6193 26.6193 40 28 40M24 44V48M28 40H32" stroke="#c8e6c9"></path>
        <path d="M24 52C24 53.3807 21.3807 56 20 56M24 52C24 53.3807 26.6193 56 28 56M24 52V48M20 56C21.3807 56 24 58.6193 24 60M20 56H16M24 60C24 58.6193 26.6193 56 28 56M24 60V64M28 56H32" stroke="#c8e6c9"></path>
        <path d="M40 4C40 5.38071 37.3807 8 36 8M40 4C40 5.38071 42.6193 8 44 8M40 4V0M36 8C37.3807 8 40 10.6193 40 12M36 8H32M40 12C40 10.6193 42.6193 8 44 8M40 12V16M44 8H48" stroke="#c8e6c9"></path>
        <path d="M40 20C40 21.3807 37.3807 24 36 24M40 20C40 21.3807 42.6193 24 44 24M40 20V16M36 24C37.3807 24 40 26.6193 40 28M36 24H32M40 28C40 26.6193 42.6193 24 44 24M40 28V32M44 24H48" stroke="#c8e6c9"></path>
        <path d="M40 36C40 37.3807 37.3807 40 36 40M40 36C40 37.3807 42.6193 40 44 40M40 36V32M36 40C37.3807 40 40 42.6193 40 44M36 40H32M40 44C40 42.6193 42.6193 40 44 40M40 44V48M44 40H48" stroke="#c8e6c9"></path>
        <path d="M40 52C40 53.3807 37.3807 56 36 56M40 52C40 53.3807 42.6193 56 44 56M40 52V48M36 56C37.3807 56 40 58.6193 40 60M36 56H32M40 60C40 58.6193 42.6193 56 44 56M40 60V64M44 56H48" stroke="#c8e6c9"></path>
        <path d="M56 4C56 5.38071 53.3807 8 52 8M56 4C56 5.38071 58.6193 8 60 8M56 4V0M52 8C53.3807 8 56 10.6193 56 12M52 8H48M56 12C56 10.6193 58.6193 8 60 8M56 12V16M60 8H64" stroke="#c8e6c9"></path>
        <path d="M56 20C56 21.3807 53.3807 24 52 24M56 20C56 21.3807 58.6193 24 60 24M56 20V16M52 24C53.3807 24 56 26.6193 56 28M52 24H48M56 28C56 26.6193 58.6193 24 60 24M56 28V32M60 24H64" stroke="#c8e6c9"></path>
        <path d="M56 36C56 37.3807 53.3807 40 52 40M56 36C56 37.3807 58.6193 40 60 40M56 36V32M52 40C53.3807 40 56 42.6193 56 44M52 40H48M56 44C56 42.6193 58.6193 40 60 40M56 44V48M60 40H64" stroke="#c8e6c9"></path>
        <path d="M56 52C56 53.3807 53.3807 56 52 56M56 52C56 53.3807 58.6193 56 60 56M56 52V48M52 56C53.3807 56 56 58.6193 56 60M52 56H48M56 60C56 58.6193 58.6193 56 60 56M56 60V64M60 56H64" stroke="#c8e6c9"></path>
    </g>
    <defs>
        <clipPath id="clip0_998_9073">
            <rect width="64" height="64" fill="white"></rect>
        </clipPath>
    </defs>
</svg>